<svg xmlns="http://www.w3.org/2000/svg" width="70" height="70" viewBox="0 0 70 70" fill="none"><path d="M29.5312 48.125H31.7188V50.3125H29.5312V48.125Z" fill="white"></path><path d="M38.2812 48.125H40.4688V50.3125H38.2812V48.125Z" fill="white"></path><path d="M33.9062 48.125H36.0938V50.3125H33.9062V48.125Z" fill="white"></path><path d="M29.5312 43.75H31.7188V45.9375H29.5312V43.75Z" fill="white"></path><path d="M38.2812 43.75H40.4688V45.9375H38.2812V43.75Z" fill="white"></path><path d="M33.9062 43.75H36.0938V45.9375H33.9062V43.75Z" fill="white"></path><path d="M33.9062 52.5H36.0938V54.6875H33.9062V52.5Z" fill="white"></path><path d="M33.9062 56.875H36.0938V59.0625H33.9062V56.875Z" fill="white"></path><path d="M29.5312 52.5H31.7188V54.6875H29.5312V52.5Z" fill="white"></path><path d="M38.2812 52.5H40.4688V54.6875H38.2812V52.5Z" fill="white"></path><path d="M29.5312 56.875H31.7188V59.0625H29.5312V56.875Z" fill="white"></path><path d="M38.2812 56.875H40.4688V59.0625H38.2812V56.875Z" fill="white"></path><path d="M52.5 49.2188H44.8438V40.4688C44.8438 40.1787 44.7285 39.9005 44.5234 39.6954C44.3183 39.4902 44.0401 39.375 43.75 39.375H26.25C25.9599 39.375 25.6817 39.4902 25.4766 39.6954C25.2715 39.9005 25.1562 40.1787 25.1562 40.4688V49.2188H17.5C17.2099 49.2188 16.9317 49.334 16.7266 49.5391C16.5215 49.7442 16.4062 50.0224 16.4062 50.3125V66.7188H14.2188V68.9062H55.7812V66.7188H53.5938V50.3125C53.5938 50.0224 53.4785 49.7442 53.2734 49.5391C53.0683 49.334 52.7901 49.2188 52.5 49.2188ZM51.4062 51.4062V66.7188H44.8438V51.4062H51.4062ZM42.6562 41.5625V66.7188H39.375V63.4375H40.4688V61.25H29.5312V63.4375H30.625V66.7188H27.3438V41.5625H42.6562ZM37.1875 63.4375V66.7188H32.8125V63.4375H37.1875ZM18.5938 51.4062H25.1562V66.7188H18.5938V51.4062Z" fill="white"></path><path d="M47.0312 53.5938H49.2188V55.7812H47.0312V53.5938Z" fill="white"></path><path d="M47.0312 57.9688H49.2188V60.1562H47.0312V57.9688Z" fill="white"></path><path d="M47.0312 62.3438H49.2188V64.5312H47.0312V62.3438Z" fill="white"></path><path d="M20.7812 53.5938H22.9688V55.7812H20.7812V53.5938Z" fill="white"></path><path d="M20.7812 57.9688H22.9688V60.1562H20.7812V57.9688Z" fill="white"></path><path d="M20.7812 62.3438H22.9688V64.5312H20.7812V62.3438Z" fill="white"></path><path d="M51.4062 4.375H53.5938V6.5625H51.4062V4.375Z" fill="white"></path><path d="M54.6875 4.375H56.875V6.5625H54.6875V4.375Z" fill="white"></path><path d="M57.9688 4.375H60.1562V6.5625H57.9688V4.375Z" fill="white"></path><path d="M51.4062 8.75H53.5938V10.9375H51.4062V8.75Z" fill="white"></path><path d="M54.6875 8.75H56.875V10.9375H54.6875V8.75Z" fill="white"></path><path d="M57.9688 8.75H60.1562V10.9375H57.9688V8.75Z" fill="white"></path><path d="M51.4062 13.125H53.5938V15.3125H51.4062V13.125Z" fill="white"></path><path d="M54.6875 13.125H56.875V15.3125H54.6875V13.125Z" fill="white"></path><path d="M57.9688 13.125H60.1562V15.3125H57.9688V13.125Z" fill="white"></path><path d="M63.4375 16.5119V3.28125C63.4369 2.70127 63.2063 2.1452 62.7962 1.73509C62.386 1.32498 61.83 1.09433 61.25 1.09375H50.3125C49.7325 1.09433 49.1765 1.32498 48.7663 1.73509C48.3562 2.1452 48.1256 2.70127 48.125 3.28125V16.5119C44.6954 17.7089 42.6562 19.673 42.6562 21.875C42.6562 25.6161 48.2986 28.4375 55.7812 28.4375C63.2639 28.4375 68.9062 25.6161 68.9062 21.875C68.9062 19.673 66.8671 17.7089 63.4375 16.5119ZM50.3125 3.28125H61.25V20.7812H59.0625V18.5938H60.1562V16.4062H51.4062V18.5938H52.5V20.7812H50.3125V3.28125ZM56.875 18.5938V20.7812H54.6875V18.5938H56.875ZM55.7812 26.25C49.521 26.25 44.8438 23.9402 44.8438 21.875C44.8438 20.8017 46.1007 19.6781 48.125 18.843V21.875C48.125 22.1651 48.2402 22.4433 48.4454 22.6484C48.6505 22.8535 48.9287 22.9688 49.2188 22.9688H62.3438C62.6338 22.9688 62.912 22.8535 63.1171 22.6484C63.3223 22.4433 63.4375 22.1651 63.4375 21.875V18.843C65.4618 19.6781 66.7188 20.8017 66.7188 21.875C66.7188 23.9402 62.0415 26.25 55.7812 26.25Z" fill="white"></path><path d="M9.84375 4.375H12.0312V6.5625H9.84375V4.375Z" fill="white"></path><path d="M13.125 4.375H15.3125V6.5625H13.125V4.375Z" fill="white"></path><path d="M16.4062 4.375H18.5938V6.5625H16.4062V4.375Z" fill="white"></path><path d="M9.84375 8.75H12.0312V10.9375H9.84375V8.75Z" fill="white"></path><path d="M13.125 8.75H15.3125V10.9375H13.125V8.75Z" fill="white"></path><path d="M16.4062 8.75H18.5938V10.9375H16.4062V8.75Z" fill="white"></path><path d="M9.84375 13.125H12.0312V15.3125H9.84375V13.125Z" fill="white"></path><path d="M13.125 13.125H15.3125V15.3125H13.125V13.125Z" fill="white"></path><path d="M16.4062 13.125H18.5938V15.3125H16.4062V13.125Z" fill="white"></path><path d="M14.2188 28.4375C21.7014 28.4375 27.3438 25.6161 27.3438 21.875C27.3438 19.673 25.3046 17.7089 21.875 16.5119V3.28125C21.8744 2.70127 21.6438 2.1452 21.2337 1.73509C20.8235 1.32498 20.2675 1.09433 19.6875 1.09375H8.75C8.17002 1.09433 7.61395 1.32498 7.20384 1.73509C6.79373 2.1452 6.56308 2.70127 6.5625 3.28125V16.5119C3.13285 17.7089 1.09375 19.673 1.09375 21.875C1.09375 25.6161 6.73607 28.4375 14.2188 28.4375ZM8.75 3.28125H19.6875V20.7812H17.5V18.5938H18.5938V16.4062H9.84375V18.5938H10.9375V20.7812H8.75V3.28125ZM15.3125 18.5938V20.7812H13.125V18.5938H15.3125ZM6.5625 18.843V21.875C6.5625 22.1651 6.67773 22.4433 6.88285 22.6484C7.08797 22.8535 7.36617 22.9688 7.65625 22.9688H20.7812C21.0713 22.9688 21.3495 22.8535 21.5546 22.6484C21.7598 22.4433 21.875 22.1651 21.875 21.875V18.843C23.8993 19.6781 25.1562 20.8017 25.1562 21.875C25.1562 23.9402 20.479 26.25 14.2188 26.25C7.95853 26.25 3.28125 23.9402 3.28125 21.875C3.28125 20.8017 4.53815 19.6781 6.5625 18.843Z" fill="white"></path><path d="M21.0449 30.2305L22.7052 28.8064L29.2702 36.4604L27.6099 37.8845L21.0449 30.2305Z" fill="white"></path><path d="M40.7324 36.4883L47.2974 28.8342L48.9577 30.2583L42.3927 37.9123L40.7324 36.4883Z" fill="white"></path></svg>