<svg xmlns="http://www.w3.org/2000/svg" width="70" height="70" viewBox="0 0 70 70" fill="none"><path d="M31.7188 25.1562H27.3438C27.0537 25.1562 26.7755 25.2715 26.5704 25.4766C26.3652 25.6817 26.25 25.9599 26.25 26.25V32.8125C26.25 33.1026 26.3652 33.3808 26.5704 33.5859C26.7755 33.791 27.0537 33.9062 27.3438 33.9062H31.7188C32.0088 33.9062 32.287 33.791 32.4921 33.5859C32.6973 33.3808 32.8125 33.1026 32.8125 32.8125V26.25C32.8125 25.9599 32.6973 25.6817 32.4921 25.4766C32.287 25.2715 32.0088 25.1562 31.7188 25.1562ZM30.625 31.7188H28.4375V27.3438H30.625V31.7188Z" fill="white"></path><path d="M38.2812 33.9062H42.6562C42.9463 33.9062 43.2245 33.791 43.4296 33.5859C43.6348 33.3808 43.75 33.1026 43.75 32.8125V26.25C43.75 25.9599 43.6348 25.6817 43.4296 25.4766C43.2245 25.2715 42.9463 25.1562 42.6562 25.1562H38.2812C37.9912 25.1562 37.713 25.2715 37.5079 25.4766C37.3027 25.6817 37.1875 25.9599 37.1875 26.25V32.8125C37.1875 33.1026 37.3027 33.3808 37.5079 33.5859C37.713 33.791 37.9912 33.9062 38.2812 33.9062ZM39.375 27.3438H41.5625V31.7188H39.375V27.3438Z" fill="white"></path><path d="M31.7188 36.0938H27.3438C27.0537 36.0938 26.7755 36.209 26.5704 36.4141C26.3652 36.6192 26.25 36.8974 26.25 37.1875V43.75C26.25 44.0401 26.3652 44.3183 26.5704 44.5234C26.7755 44.7285 27.0537 44.8438 27.3438 44.8438H31.7188C32.0088 44.8438 32.287 44.7285 32.4921 44.5234C32.6973 44.3183 32.8125 44.0401 32.8125 43.75V37.1875C32.8125 36.8974 32.6973 36.6192 32.4921 36.4141C32.287 36.209 32.0088 36.0938 31.7188 36.0938ZM30.625 42.6562H28.4375V38.2812H30.625V42.6562Z" fill="white"></path><path d="M38.2812 44.8438H42.6562C42.9463 44.8438 43.2245 44.7285 43.4296 44.5234C43.6348 44.3183 43.75 44.0401 43.75 43.75V37.1875C43.75 36.8974 43.6348 36.6192 43.4296 36.4141C43.2245 36.209 42.9463 36.0938 42.6562 36.0938H38.2812C37.9912 36.0938 37.713 36.209 37.5079 36.4141C37.3027 36.6192 37.1875 36.8974 37.1875 37.1875V43.75C37.1875 44.0401 37.3027 44.3183 37.5079 44.5234C37.713 44.7285 37.9912 44.8438 38.2812 44.8438ZM39.375 38.2812H41.5625V42.6562H39.375V38.2812Z" fill="white"></path><path d="M31.7188 47.0312H27.3438C27.0537 47.0312 26.7755 47.1465 26.5704 47.3516C26.3652 47.5567 26.25 47.8349 26.25 48.125V54.6875C26.25 54.9776 26.3652 55.2558 26.5704 55.4609C26.7755 55.666 27.0537 55.7812 27.3438 55.7812H31.7188C32.0088 55.7812 32.287 55.666 32.4921 55.4609C32.6973 55.2558 32.8125 54.9776 32.8125 54.6875V48.125C32.8125 47.8349 32.6973 47.5567 32.4921 47.3516C32.287 47.1465 32.0088 47.0312 31.7188 47.0312ZM30.625 53.5938H28.4375V49.2188H30.625V53.5938Z" fill="white"></path><path d="M38.2812 55.7812H42.6562C42.9463 55.7812 43.2245 55.666 43.4296 55.4609C43.6348 55.2558 43.75 54.9776 43.75 54.6875V48.125C43.75 47.8349 43.6348 47.5567 43.4296 47.3516C43.2245 47.1465 42.9463 47.0312 42.6562 47.0312H38.2812C37.9912 47.0312 37.713 47.1465 37.5079 47.3516C37.3027 47.5567 37.1875 47.8349 37.1875 48.125V54.6875C37.1875 54.9776 37.3027 55.2558 37.5079 55.4609C37.713 55.666 37.9912 55.7812 38.2812 55.7812ZM39.375 49.2188H41.5625V53.5938H39.375V49.2188Z" fill="white"></path><path d="M53.5938 49.2188H57.9688C58.2588 49.2188 58.537 49.1035 58.7421 48.8984C58.9473 48.6933 59.0625 48.4151 59.0625 48.125V41.5625C59.0625 41.2724 58.9473 40.9942 58.7421 40.7891C58.537 40.584 58.2588 40.4688 57.9688 40.4688H53.5938C53.3037 40.4688 53.0255 40.584 52.8204 40.7891C52.6152 40.9942 52.5 41.2724 52.5 41.5625V48.125C52.5 48.4151 52.6152 48.6933 52.8204 48.8984C53.0255 49.1035 53.3037 49.2188 53.5938 49.2188ZM54.6875 42.6562H56.875V47.0312H54.6875V42.6562Z" fill="white"></path><path d="M53.5938 60.1562H57.9688C58.2588 60.1562 58.537 60.041 58.7421 59.8359C58.9473 59.6308 59.0625 59.3526 59.0625 59.0625V52.5C59.0625 52.2099 58.9473 51.9317 58.7421 51.7266C58.537 51.5215 58.2588 51.4062 57.9688 51.4062H53.5938C53.3037 51.4062 53.0255 51.5215 52.8204 51.7266C52.6152 51.9317 52.5 52.2099 52.5 52.5V59.0625C52.5 59.3526 52.6152 59.6308 52.8204 59.8359C53.0255 60.041 53.3037 60.1562 53.5938 60.1562ZM54.6875 53.5938H56.875V57.9688H54.6875V53.5938Z" fill="white"></path><path d="M12.0312 49.2188H16.4062C16.6963 49.2188 16.9745 49.1035 17.1796 48.8984C17.3848 48.6933 17.5 48.4151 17.5 48.125V41.5625C17.5 41.2724 17.3848 40.9942 17.1796 40.7891C16.9745 40.584 16.6963 40.4688 16.4062 40.4688H12.0312C11.7412 40.4688 11.463 40.584 11.2579 40.7891C11.0527 40.9942 10.9375 41.2724 10.9375 41.5625V48.125C10.9375 48.4151 11.0527 48.6933 11.2579 48.8984C11.463 49.1035 11.7412 49.2188 12.0312 49.2188ZM13.125 42.6562H15.3125V47.0312H13.125V42.6562Z" fill="white"></path><path d="M12.0312 60.1562H16.4062C16.6963 60.1562 16.9745 60.041 17.1796 59.8359C17.3848 59.6308 17.5 59.3526 17.5 59.0625V52.5C17.5 52.2099 17.3848 51.9317 17.1796 51.7266C16.9745 51.5215 16.6963 51.4062 16.4062 51.4062H12.0312C11.7412 51.4062 11.463 51.5215 11.2579 51.7266C11.0527 51.9317 10.9375 52.2099 10.9375 52.5V59.0625C10.9375 59.3526 11.0527 59.6308 11.2579 59.8359C11.463 60.041 11.7412 60.1562 12.0312 60.1562ZM13.125 53.5938H15.3125V57.9688H13.125V53.5938Z" fill="white"></path><path d="M38.6422 12.0312C39.1728 12.0112 39.6911 11.866 40.1549 11.6074C40.6187 11.3489 41.0148 10.9845 41.3109 10.5438C41.7484 10.0188 41.9234 9.84375 42.2953 9.84375C42.6672 9.84375 42.8313 10.0188 43.2688 10.5438C43.5649 10.9845 43.961 11.3489 44.4248 11.6074C44.8886 11.866 45.4069 12.0112 45.9375 12.0312C46.2276 12.0312 46.5058 11.916 46.7109 11.7109C46.916 11.5058 47.0312 11.2276 47.0312 10.9375V5.46875C47.0312 5.17867 46.916 4.90047 46.7109 4.69535C46.5058 4.49023 46.2276 4.375 45.9375 4.375C45.5656 4.375 45.3906 4.2 44.9531 3.675C44.673 3.22038 44.2813 2.84503 43.8151 2.58467C43.3489 2.32432 42.8238 2.18764 42.2898 2.18764C41.7559 2.18764 41.2308 2.32432 40.7646 2.58467C40.2984 2.84503 39.9066 3.22038 39.6266 3.675C39.1891 4.2 39.0141 4.375 38.6422 4.375C38.2703 4.375 38.1281 4.23281 37.6578 3.675C37.2538 3.12237 36.7154 2.68192 36.0938 2.39531V1.09375H33.9062V14.4922L19.3922 18.5938C19.1556 18.6599 18.9482 18.8038 18.8033 19.0022C18.6585 19.2006 18.5847 19.442 18.5938 19.6875V24.0625C18.5938 24.2323 18.6333 24.3998 18.7092 24.5516C18.7852 24.7035 18.8954 24.8356 19.0312 24.9375C19.1658 25.0377 19.3216 25.1056 19.4866 25.1359C19.6516 25.1663 19.8214 25.1583 19.9828 25.1125L21.875 24.5766V27.3438H4.375C4.08492 27.3438 3.80672 27.459 3.6016 27.6641C3.39648 27.8692 3.28125 28.1474 3.28125 28.4375V32.8125C3.28125 33.1026 3.39648 33.3808 3.6016 33.5859C3.80672 33.791 4.08492 33.9062 4.375 33.9062V66.7188H2.1875V68.9062H67.8125V66.7188H65.625V33.9062C65.9151 33.9062 66.1933 33.791 66.3984 33.5859C66.6035 33.3808 66.7188 33.1026 66.7188 32.8125V28.4375C66.7188 28.1474 66.6035 27.8692 66.3984 27.6641C66.1933 27.459 65.9151 27.3438 65.625 27.3438H48.125V24.5766L50.0172 25.1125C50.1126 25.1431 50.2123 25.1579 50.3125 25.1562C50.6026 25.1563 50.8808 25.041 51.0859 24.8359C51.291 24.6308 51.4062 24.3526 51.4062 24.0625V19.6875C51.4153 19.442 51.3415 19.2006 51.1967 19.0022C51.0518 18.8038 50.8444 18.6599 50.6078 18.5938L36.0938 14.4922V10.675C36.3816 11.0859 36.7625 11.423 37.2054 11.6587C37.6482 11.8944 38.1406 12.022 38.6422 12.0312V12.0312ZM36.0938 5.20625C36.3816 5.61717 36.7625 5.95422 37.2054 6.18992C37.6482 6.42562 38.1406 6.55328 38.6422 6.5625C39.1728 6.54242 39.6911 6.3972 40.1549 6.1387C40.6187 5.88019 41.0148 5.51572 41.3109 5.075C41.7484 4.55 41.9234 4.375 42.2953 4.375C42.6672 4.375 42.8313 4.55 43.2688 5.075C43.6769 5.62807 44.2188 6.06841 44.8438 6.35469V9.0125C44.5505 8.60709 44.1684 8.27412 43.7267 8.03905C43.285 7.80399 42.7954 7.67305 42.2953 7.65625C41.7632 7.66914 41.2422 7.81128 40.7772 8.07043C40.3123 8.32958 39.9174 8.69794 39.6266 9.14375C39.1891 9.66875 39.0141 9.84375 38.6422 9.84375C38.2703 9.84375 38.1281 9.70156 37.6578 9.14375C37.2538 8.59112 36.7154 8.15067 36.0938 7.86406V5.20625ZM21.875 66.7188H6.5625V33.9062H21.875V66.7188ZM21.875 31.7188H5.46875V29.5312H21.875V31.7188ZM37.1875 66.7188H32.8125V60.1562H37.1875V66.7188ZM45.9375 66.7188H39.375V59.0625C39.375 58.7724 39.2598 58.4942 39.0546 58.2891C38.8495 58.084 38.5713 57.9688 38.2812 57.9688H31.7188C31.4287 57.9688 31.1505 58.084 30.9454 58.2891C30.7402 58.4942 30.625 58.7724 30.625 59.0625V66.7188H24.0625V23.9531L35 20.7812L45.9375 23.9531V66.7188ZM63.4375 66.7188H48.125V33.9062H63.4375V66.7188ZM64.5312 29.5312V31.7188H48.125V29.5312H64.5312ZM49.2188 20.5078V22.6078L35.2953 18.5938C35.1028 18.5353 34.8972 18.5353 34.7047 18.5938L20.7812 22.6078V20.5078L35 16.4062L49.2188 20.5078Z" fill="white"></path></svg>