<svg xmlns="http://www.w3.org/2000/svg" width="70" height="70" viewBox="0 0 70 70" fill="none"><g clip-path="url(#clip0_417_1185)"><path d="M43.0736 49.4492H39.2363C38.67 49.4492 38.2109 49.9083 38.2109 50.4746C38.2109 51.041 38.67 51.5 39.2363 51.5H43.0736C43.6399 51.5 44.099 51.041 44.099 50.4746C44.099 49.9083 43.6399 49.4492 43.0736 49.4492Z" fill="white"></path><path d="M65.6589 38.4708L60.0752 36.317L57.2283 33.4701C57.0455 33.2873 56.8099 33.1884 56.5693 33.1729V30.9076C57.9111 29.477 58.8662 27.6653 59.2516 25.6244C59.4908 25.6352 59.7324 25.6159 59.9707 25.5672C61.3351 25.2879 62.3253 24.022 62.3253 22.5575V21.8098C62.3253 20.9625 61.9817 20.1848 61.4223 19.6288C62.3278 14.7042 61.582 10.6909 59.2558 8.0048C57.0058 5.40672 53.3809 4.1649 48.7733 4.41414C44.5164 4.64424 41.7683 6.60288 40.8977 7.31942C40.4211 7.37602 39.6093 7.54337 38.7876 8.03638C37.6487 8.7197 36.2912 10.1551 36.2912 13.1128C36.2912 15.6929 36.7036 17.8471 37.0022 19.0692C36.0014 19.5568 35.3319 20.6133 35.3319 21.8212V22.5573C35.3319 24.0219 36.3221 25.2878 37.6864 25.5671C37.9247 25.6159 38.1665 25.635 38.4056 25.6242C38.791 27.6652 39.7463 29.4768 41.0879 30.9075V33.1728C40.8473 33.1882 40.6116 33.2872 40.4289 33.47L37.582 36.3169L31.9982 38.4706C31.5152 38.6569 31.0538 38.8984 30.6269 39.1884C30.1585 39.5067 30.0369 40.1444 30.355 40.6128C30.5534 40.9048 30.8759 41.062 31.204 41.062C31.4024 41.062 31.6028 41.0045 31.7794 40.8847C32.077 40.6825 32.399 40.514 32.7362 40.3839L37.9183 38.3851L41.8804 44.3284C42.3715 45.0652 43.1588 45.5378 44.0399 45.625C44.138 45.6347 44.236 45.6395 44.3333 45.6395C44.8434 45.6395 45.3383 45.5054 45.7764 45.2575L44.9261 64.5442C44.9011 65.11 45.3396 65.5889 45.9055 65.6138C45.9208 65.6145 45.9361 65.6147 45.9514 65.6147C46.4969 65.6147 46.9508 65.1848 46.975 64.6345L47.7642 46.7323H49.8929L50.682 64.6345C50.7062 65.1849 51.1601 65.6147 51.7056 65.6147C51.721 65.6147 51.7363 65.6145 51.7516 65.6138C52.3173 65.5889 52.7558 65.11 52.7309 64.5442L51.8806 45.2575C52.3187 45.5054 52.8135 45.6395 53.3237 45.6395C53.4211 45.6395 53.5191 45.6347 53.6171 45.625C54.4983 45.5378 55.2854 45.0652 55.7766 44.3284L59.7387 38.3851L64.9208 40.3839C65.6476 40.6642 66.2732 41.1114 66.7651 41.6693L63.2199 45.2146C61.9389 46.4955 61.2336 48.1985 61.2336 50.0097V64.5895C61.2336 65.1558 61.6927 65.6149 62.259 65.6149C62.8253 65.6149 63.2844 65.1558 63.2844 64.5895V50.0097C63.2844 48.7463 63.7765 47.5582 64.6699 46.6648L67.7814 43.5533C67.9063 44.0117 67.9647 44.4937 67.945 44.9864L67.1508 64.5479C67.1278 65.1138 67.5679 65.5911 68.1337 65.6142C68.1479 65.6147 68.162 65.615 68.1761 65.615C68.7231 65.615 69.1775 65.1829 69.1998 64.6313L69.9943 45.0693C70.1107 42.1675 68.3684 39.5159 65.6589 38.4708ZM40.4129 25.2015C40.232 24.217 39.3204 23.5014 38.3364 23.5743C38.2586 23.5799 38.1785 23.5744 38.0978 23.558C37.6901 23.4746 37.3827 23.0443 37.3827 22.5575V21.8211C37.3827 21.3455 37.7005 20.917 38.1062 20.8457C38.4485 20.7856 38.7764 20.9112 38.9838 21.1818C39.172 21.4272 39.4232 21.6028 39.7099 21.6892C40.1299 21.816 40.593 21.7415 40.949 21.4902C41.5902 21.0376 42.1559 20.4845 42.6305 19.8463C42.9685 19.3919 42.8738 18.7496 42.4195 18.4117C41.9649 18.0738 41.3228 18.1682 40.9848 18.6227C40.7481 18.941 40.4807 19.2299 40.1864 19.4855C39.8612 19.2074 39.4814 19.0065 39.0744 18.8918C38.811 17.8825 38.342 15.7203 38.342 13.1125C38.342 11.542 38.8261 10.4385 39.7808 9.83287C40.5258 9.36023 41.3143 9.34136 41.3137 9.34123C41.5758 9.34123 41.831 9.238 42.0213 9.05795C42.0463 9.03443 44.567 6.69516 48.8838 6.46178C52.8352 6.2485 55.8857 7.246 57.7053 9.34711C59.5392 11.4649 60.15 14.7162 59.4874 18.7857C59.2128 18.776 58.9121 18.7967 58.6128 18.8466L57.6495 16.5331C57.4529 16.0611 56.938 15.8063 56.4434 15.9352C56.3481 15.9601 46.8788 18.3606 42.9083 13.4174C42.5538 12.9759 41.9085 12.9054 41.4667 13.26C41.0253 13.6147 40.9547 14.26 41.3095 14.7016C45.3641 19.7495 53.4092 18.6514 56.0872 18.1159L56.8322 19.9048C57.1525 20.6739 57.972 21.0939 58.7798 20.9034C59.1113 20.8254 59.4281 20.8236 59.547 20.8471C59.9617 20.9297 60.2744 21.3433 60.2744 21.8095V22.5573C60.2744 23.0443 59.9669 23.4744 59.5592 23.5578C59.4787 23.5744 59.3982 23.5799 59.3206 23.5741C58.3368 23.5025 57.4252 24.2167 57.2441 25.2015C56.4982 29.2626 52.9589 32.2103 48.8285 32.2103C44.6981 32.2103 41.1588 29.2626 40.4129 25.2015ZM44.9617 43.3272C44.7016 43.5872 44.3994 43.5999 44.2421 43.5843C44.085 43.5689 43.791 43.497 43.587 43.191L39.5955 37.2038L41.2007 35.5986L47.3284 40.9604L44.9617 43.3272ZM47.8545 44.6817L47.9166 43.2724L48.8284 42.3606L49.7402 43.2724L49.8022 44.6817H47.8545ZM48.8285 39.5478L43.1387 34.5692V32.6068C44.793 33.6588 46.7503 34.2611 48.8285 34.2611C50.9068 34.2611 52.8642 33.6588 54.5185 32.6068V34.5692L48.8285 39.5478ZM54.0703 43.191C53.8662 43.4971 53.5721 43.5689 53.4152 43.5843C53.2578 43.5999 52.9555 43.5872 52.6955 43.327L50.3287 40.9603L56.4565 35.5984L58.0617 37.2037L54.0703 43.191Z" fill="white"></path><path d="M32.518 43.8449L27.511 41.6595L24.774 38.9225C24.5907 38.739 24.355 38.6406 24.115 38.6253V37.0121C26.4542 35.475 28.1659 33.0303 28.7159 30.1172C28.9853 30.1292 29.2572 30.1034 29.5252 30.0401C30.8373 29.7296 31.7895 28.4722 31.7895 27.0503V26.3027C31.7895 25.2639 31.2741 24.3295 30.4755 23.7812C30.7104 22.8507 30.8302 21.8987 30.8302 20.9405C30.8302 16.6923 28.5338 12.9506 25.0725 10.8022C25.0356 7.25665 22.0093 4.38281 18.2929 4.38281C14.5764 4.38281 11.5501 7.25665 11.5132 10.8022C8.05204 12.9506 5.7557 16.6925 5.7557 20.9405C5.7557 21.8959 5.87465 22.8451 6.10816 23.773C5.30999 24.3185 4.79634 25.2574 4.79634 26.314V27.0503C4.79634 28.4722 5.74859 29.7296 7.06069 30.0401C7.32866 30.1035 7.60045 30.1292 7.86993 30.1172C8.41995 33.0303 10.1318 35.475 12.4709 37.0121V38.6253C12.231 38.6406 11.9953 38.739 11.812 38.9225L9.07497 41.6595L4.06817 43.8449C1.52068 44.957 -0.111745 47.57 0.00597033 50.3472L0.6115 64.6334C0.634879 65.1843 1.08892 65.6154 1.63525 65.6154C1.64988 65.6154 1.66465 65.6151 1.67941 65.6145C2.2453 65.5905 2.68444 65.1124 2.66051 64.5465L2.05485 50.2602C2.01588 49.3397 2.25514 48.4465 2.70495 47.6777L5.39627 50.9073C6.2468 51.9279 6.71506 53.2215 6.71506 54.5499V64.59C6.71506 65.1563 7.17416 65.6154 7.74045 65.6154C8.30675 65.6154 8.76585 65.1563 8.76585 64.59V54.5499C8.76585 52.7427 8.1286 50.9829 6.97168 49.5945L4.11056 46.1611C4.35378 45.9935 4.61232 45.845 4.88863 45.7244L9.25216 43.8196L12.3357 48.8248C12.6402 49.319 13.1436 49.6541 13.717 49.7444C13.8201 49.7606 13.9234 49.7686 14.0264 49.7686C14.4952 49.7686 14.9519 49.6024 15.3139 49.2935L17.2679 47.6262V64.5899C17.2679 65.1562 17.727 65.6153 18.2933 65.6153C18.8596 65.6153 19.3187 65.1562 19.3187 64.5899V47.6264L21.2725 49.2937C21.6346 49.6027 22.0912 49.7688 22.56 49.7688C22.6628 49.7688 22.7663 49.7608 22.8694 49.7446C23.4428 49.6544 23.9462 49.3193 24.2507 48.8251L27.3342 43.8198L31.6978 45.7245C31.9739 45.8451 32.2326 45.9936 32.4758 46.1612L29.6147 49.5947C28.4578 50.9829 27.8206 52.7429 27.8206 54.55V64.5902C27.8206 65.1565 28.2797 65.6156 28.8459 65.6156C29.4122 65.6156 29.8713 65.1565 29.8713 64.5902V54.55C29.8713 53.2217 30.3397 51.928 31.1901 50.9074L33.8815 47.6778C34.3313 48.4466 34.5705 49.3398 34.5316 50.2603L33.926 64.5467C33.9021 65.1124 34.3412 65.5905 34.9071 65.6146C34.9219 65.6153 34.9365 65.6156 34.9513 65.6156C35.4976 65.6156 35.9517 65.1846 35.975 64.6335L36.5806 50.3473C36.6981 47.5701 35.0656 44.957 32.518 43.8449ZM18.2931 6.4336C20.4746 6.4336 22.3151 7.82527 22.8594 9.7109C21.4438 9.1766 19.9035 8.88279 18.2931 8.88279C16.6827 8.88279 15.1424 9.1766 13.7268 9.7109C14.2711 7.82527 16.1115 6.4336 18.2931 6.4336ZM9.87738 29.6946C9.69663 28.7098 8.78348 27.9945 7.80102 28.0672C7.71393 28.0734 7.62397 28.066 7.53319 28.0444C7.14217 27.9519 6.84727 27.5245 6.84727 27.0503V26.314C6.84727 25.8383 7.16514 25.4098 7.57079 25.3386C7.91313 25.2784 8.24085 25.4042 8.44811 25.6745C8.63638 25.9201 8.88753 26.0956 9.1745 26.1823C9.59437 26.3092 10.0577 26.2347 10.4135 25.9832C11.045 25.5375 11.6033 24.9942 12.0731 24.3686C12.4131 23.9158 12.3216 23.2729 11.8688 22.933C11.4159 22.593 10.7732 22.6845 10.4331 23.1373C10.2006 23.447 9.93876 23.7285 9.65083 23.9785C9.2121 23.6034 8.67411 23.3685 8.10344 23.2972C7.90698 22.5249 7.80649 21.7351 7.80649 20.9406C7.80649 15.4229 12.5107 10.9337 18.2931 10.9337C24.0754 10.9337 28.7796 15.4228 28.7796 20.9406C28.7796 21.7336 28.6797 22.5218 28.4839 23.2927C28.214 23.3142 27.9398 23.3584 27.6859 23.4243L26.9151 22.7904C26.5277 22.4719 26.0402 22.3125 25.5468 22.3418C24.0396 22.4309 16.3207 22.6347 12.3605 17.8952C11.9973 17.4607 11.3508 17.4027 10.9162 17.7659C10.4815 18.129 10.4237 18.7757 10.7868 19.2102C12.74 21.5476 15.6047 23.1283 19.3012 23.9081C22.1314 24.5052 24.6473 24.4472 25.633 24.391L26.8356 25.3799C27.1666 25.6521 27.6308 25.6905 28.0014 25.4748C28.1753 25.38 28.7578 25.2895 29.0119 25.3402C29.4266 25.4227 29.7391 25.8364 29.7391 26.3027V27.0503C29.7391 27.5246 29.4442 27.952 29.0532 28.0444C28.9626 28.0659 28.8725 28.0737 28.7854 28.0671C27.8035 27.9957 26.8898 28.7098 26.7089 29.6945C25.9629 33.7557 22.4237 36.7034 18.2933 36.7034C14.1627 36.7034 10.6233 33.7557 9.87738 29.6946ZM14.0413 47.6836L10.9572 42.6775L12.5371 41.0975L16.7833 45.3438L14.0413 47.6836ZM18.2931 43.9532L14.5219 40.1819V38.0606C15.6992 38.5088 16.9713 38.7542 18.2931 38.7542C19.6149 38.7542 20.8871 38.5088 22.0644 38.0607V40.1819L18.2931 43.9532ZM22.545 47.6836L19.8029 45.3438L24.0491 41.0975L25.6291 42.6775L22.545 47.6836Z" fill="white"></path><path d="M14.4561 53.9727H11.5781C11.0118 53.9727 10.5527 54.4318 10.5527 54.9981C10.5527 55.5643 11.0118 56.0234 11.5781 56.0234H14.4561C15.0224 56.0234 15.4815 55.5643 15.4815 54.9981C15.4815 54.4318 15.0224 53.9727 14.4561 53.9727Z" fill="white"></path></g><defs><clipPath id="clip0_417_1185"><rect width="70" height="70" fill="white"></rect></clipPath></defs></svg>