<svg xmlns="http://www.w3.org/2000/svg" width="70" height="70" viewBox="0 0 70 70" fill="none"><g clip-path="url(#clip0_423_1304)"><path d="M35.0085 2.65894e-05C34.8196 -0.00126752 34.6332 0.0446814 34.4681 0.136761L4.93447 16.619C4.15564 17.0537 4.19926 18.1875 5.00722 18.5655L12.0307 21.8517V25.155H10.9413C10.3373 25.155 9.84336 25.6406 9.84336 26.2447V36.0905C9.84336 36.698 10.334 37.1887 10.9413 37.1887H15.3182C15.9222 37.1887 16.4076 36.6947 16.4076 36.0905V26.2447C16.4076 25.6439 15.9188 25.155 15.3182 25.155H14.2202V22.8773L22.3843 26.6977C22.6927 27.4661 23.1622 28.2731 23.8198 29.0117V29.3152C21.7367 29.5352 20.1457 31.3859 20.1457 33.5949C20.1457 35.9149 21.8875 37.874 24.2235 37.8982C24.3178 37.8982 24.3881 37.894 24.4819 37.8858C25.2503 39.9927 26.6509 41.8187 28.4358 43.1142V45.4902L28.1134 45.1677C27.9067 44.9598 27.625 44.8435 27.3316 44.8452C27.0456 44.8491 26.7728 44.965 26.5712 45.1677L23.5401 48.1953C18.1699 48.6558 12.6122 52.1757 10.0614 58.3569C9.88485 58.8503 8.75403 61.2988 8.75403 65.0344V68.9017C8.75403 69.5059 9.23944 70 9.84344 70H60.157C60.761 70 61.2464 69.5059 61.2464 68.9017V65.0344C61.2464 62.0144 60.5043 59.7074 59.8878 58.2526C57.4695 52.4204 52.0451 48.6847 46.4625 48.191L43.4292 45.1676C43.2204 44.9575 42.9351 44.841 42.6389 44.8451C42.3528 44.849 42.08 44.965 41.8784 45.1676L41.5642 45.4819V43.1123C43.3491 41.8168 44.7476 39.9929 45.516 37.886C45.6098 37.8943 45.6847 37.8984 45.7789 37.8984C48.0605 37.8984 49.8567 35.9237 49.8567 33.5952C49.8567 31.416 48.3042 29.548 46.1826 29.3197L46.1868 28.9947C46.8017 28.3229 47.3059 27.4673 47.6136 26.7021L64.9929 18.5656C65.8007 18.1875 65.8443 17.0538 65.0657 16.6191L35.5342 0.136885C35.3738 0.0472863 35.1927 0.00139105 35.0087 0.000150647L35.0085 2.65894e-05ZM35.0003 2.35036L62.1351 17.4844L48.2206 24.0012C48.2834 23.0008 48.1722 22.3405 48.1288 22.0996V15.7387C48.1288 15.227 47.8861 14.7805 47.6033 14.4631C47.3201 14.1458 46.9872 13.9174 46.61 13.7132C45.8557 13.3047 44.9068 12.9963 43.7605 12.7346C41.4678 12.2111 38.3998 11.9034 35.0004 11.9034C31.6009 11.9034 28.5329 12.2111 26.2402 12.7346C25.0939 12.9963 24.145 13.3046 23.3907 13.7132C23.0137 13.9174 22.6804 14.1458 22.3974 14.4631C22.1147 14.7804 21.8744 15.227 21.8741 15.7387L21.8699 22.0825C21.8261 22.3233 21.7232 23.0008 21.7844 24.0012L14.2205 20.4608V13.9397L35.0003 2.35036ZM43.267 14.867C44.2952 15.1017 45.1097 15.3849 45.5697 15.634C45.7809 15.7484 45.8929 15.844 45.9413 15.8926V19.8091C45.356 19.5573 44.6376 19.3385 43.7603 19.1382C41.4676 18.6147 38.3996 18.307 35.0002 18.307C31.6008 18.307 28.5328 18.6147 26.2401 19.1382C25.3628 19.3385 24.5924 19.5721 24.0613 19.8005V15.8926C24.11 15.844 24.2216 15.7484 24.4329 15.634C24.8929 15.3849 25.6967 15.1017 26.7249 14.867C28.7812 14.3975 31.7347 14.0914 35.0002 14.0914C38.2657 14.0914 41.2106 14.3975 43.267 14.867V14.867ZM12.0309 15.1618V19.4352L7.86548 17.4844L12.0309 15.1618ZM43.267 21.2706C44.2952 21.5053 45.1097 21.7971 45.5697 22.0462C45.7135 22.1249 45.8979 22.2451 45.9434 22.2919C45.9516 22.365 45.9599 22.3992 45.9723 22.4415C45.9971 22.5663 46.4811 25.3472 44.6052 27.4733H38.6669C36.0058 27.4733 33.7595 25.493 33.3629 22.903C33.282 22.3743 32.8317 21.9804 32.297 21.9735C31.6922 21.9658 31.1967 22.4518 31.1905 23.0568C31.1659 25.4814 29.193 27.4733 26.7432 27.4733H25.3868C23.4504 25.1977 24.0368 22.4609 24.0453 22.3133C24.0887 22.2677 24.2144 22.1651 24.4339 22.0462C24.8939 21.7971 25.6806 21.5139 26.7088 21.2791C28.7651 20.8097 31.7357 20.495 35.0007 20.495C38.2657 20.495 41.2106 20.8011 43.267 21.2706V21.2706ZM32.4541 26.3836C33.5993 28.1066 35.8135 29.6613 38.6658 29.6613H43.9954V34.0542C43.9954 39.0151 40.0045 43.0346 35.0003 43.0346C29.9961 43.0346 26.0073 39.0111 26.0073 34.0542V29.6613H26.7421C29.4595 29.6613 31.4969 28.053 32.4541 26.3836V26.3836ZM12.0309 27.343H14.2204V34.9986H12.0309V27.343ZM23.82 31.5373V34.0542C23.82 34.6079 23.8572 35.1526 23.9332 35.6845C23.0949 35.5477 22.3333 34.7023 22.3333 33.5949C22.3333 32.5758 22.9944 31.7247 23.82 31.5373H23.82ZM46.1827 31.5373C46.9834 31.7304 47.6673 32.5417 47.6673 33.5949C47.6673 34.7023 46.9264 35.5397 46.0652 35.6802C46.1434 35.1483 46.1826 34.6079 46.1826 34.0542L46.1827 31.5373ZM30.6256 44.3359C31.9697 44.9067 33.4472 45.2162 35.0003 45.2162C36.5534 45.2162 38.033 44.911 39.3771 44.3402V47.6691L35.0003 52.0472L30.6256 47.6734V44.3359ZM27.3381 47.4853L33.458 53.5898L31.7235 55.3269L25.6121 49.2118L27.3381 47.4853ZM42.6539 47.4853L44.3906 49.2203L38.2877 55.3333L36.5426 53.5898L42.6539 47.4853ZM46.3195 50.3805C50.9693 50.8314 55.3075 53.7464 57.5639 58.4016C58.8843 61.1523 59.0591 63.6345 59.0591 65.0338V67.8115H51.4055V64.5317C51.4055 63.9123 50.9117 63.4247 50.2926 63.4356C49.6885 63.448 49.2181 63.9274 49.2181 64.5317V67.8115H20.7846V64.5317C20.7846 63.9114 20.2895 63.4241 19.6695 63.4356C19.0655 63.448 18.5951 63.9274 18.5951 64.5317V67.8115H10.9415V65.0338C10.9415 62.9847 11.3317 61.0564 12.0466 59.2919C13.9717 54.497 18.3908 50.8936 23.6832 50.3848L30.9481 57.6431C31.3747 58.0673 32.0637 58.0673 32.4904 57.6431L35.0003 55.1389L37.5123 57.6431C37.939 58.0673 38.628 58.0673 39.0546 57.6431L46.3195 50.3805Z" fill="white"></path></g><defs><clipPath id="clip0_423_1304"><rect width="70" height="70" fill="white"></rect></clipPath></defs></svg>