<svg xmlns="http://www.w3.org/2000/svg" width="70" height="70" viewBox="0 0 70 70" fill="#fff"><g clip-path="url(#clip0_489_1120)"><path d="M9.76998 45.4125C9.29952 45.4125 8.84832 45.2256 8.51565 44.8929C8.18298 44.5602 7.99609 44.109 7.99609 43.6386V30.9848C7.99609 30.5144 8.18298 30.0632 8.51565 29.7305C8.84832 29.3978 9.29952 29.2109 9.76998 29.2109C10.2404 29.2109 10.6916 29.3978 11.0243 29.7305C11.357 30.0632 11.5439 30.5144 11.5439 30.9848V43.6386C11.5439 44.109 11.357 44.5602 11.0243 44.8929C10.6916 45.2256 10.2404 45.4125 9.76998 45.4125Z" fill="white"></path><path d="M17.7633 17.1594C16.0664 17.1594 14.4076 16.6562 12.9967 15.7135C11.5857 14.7707 10.4861 13.4308 9.83669 11.863C9.18731 10.2953 9.0174 8.57019 9.34845 6.90589C9.6795 5.24159 10.4966 3.71284 11.6965 2.51294C12.8964 1.31305 14.4252 0.49591 16.0895 0.16486C17.7538 -0.166189 19.4789 0.00371754 21.0466 0.653095C22.6144 1.30247 23.9543 2.40216 24.8971 3.81308C25.8398 5.22401 26.343 6.88281 26.343 8.57971C26.3405 10.8544 25.4358 13.0352 23.8273 14.6437C22.2188 16.2522 20.038 17.1569 17.7633 17.1594V17.1594ZM17.7633 3.54778C16.7681 3.54778 15.7952 3.8429 14.9677 4.39581C14.1402 4.94873 13.4953 5.73461 13.1144 6.65407C12.7336 7.57354 12.6339 8.58529 12.8281 9.56139C13.0222 10.5375 13.5015 11.4341 14.2052 12.1378C14.9089 12.8416 15.8055 13.3208 16.7816 13.515C17.7577 13.7091 18.7695 13.6095 19.6889 13.2286C20.6084 12.8478 21.3943 12.2028 21.9472 11.3753C22.5001 10.5478 22.7952 9.57493 22.7952 8.57971C22.7937 7.24564 22.263 5.96666 21.3197 5.02333C20.3764 4.08 19.0974 3.54935 17.7633 3.54778V3.54778Z" fill="white"></path><path d="M45.7321 30.4314C45.3895 30.4316 45.0543 30.3326 44.7667 30.1464C44.4792 29.9603 44.2518 29.6948 44.1118 29.3822C43.9719 29.0695 43.9255 28.7231 43.9781 28.3846C44.0308 28.0462 44.1804 27.7302 44.4087 27.4749L54.0469 16.6707C54.2022 16.4969 54.3902 16.3553 54.6002 16.2541C54.8102 16.1529 55.0381 16.0941 55.2709 16.0809C55.5036 16.0678 55.7367 16.1007 55.9567 16.1776C56.1768 16.2546 56.3795 16.3741 56.5534 16.5294C56.7272 16.6847 56.8688 16.8727 56.97 17.0827C57.0712 17.2927 57.13 17.5206 57.1431 17.7534C57.1563 17.9861 57.1234 18.2192 57.0465 18.4392C56.9695 18.6593 56.85 18.862 56.6947 19.0359L47.0566 29.8341C46.8905 30.0215 46.6866 30.1716 46.4583 30.2746C46.23 30.3775 45.9825 30.4309 45.7321 30.4314V30.4314Z" fill="white"></path><path d="M64.6783 46.4475H32.8512C32.3807 46.4475 31.9296 46.2606 31.5969 45.928C31.2642 45.5953 31.0773 45.1441 31.0773 44.6736C31.0773 44.2032 31.2642 43.752 31.5969 43.4193C31.9296 43.0866 32.3807 42.8998 32.8512 42.8998H64.6783C65.1488 42.8998 65.6 42.7129 65.9326 42.3802C66.2653 42.0475 66.4522 41.5963 66.4522 41.1259V5.36073C66.4522 4.89026 66.2653 4.43907 65.9326 4.1064C65.6 3.77373 65.1488 3.58684 64.6783 3.58684H29.8794C29.4089 3.58684 28.9577 3.39995 28.625 3.06728C28.2924 2.73461 28.1055 2.28342 28.1055 1.81295C28.1055 1.34249 28.2924 0.891291 28.625 0.558622C28.9577 0.225954 29.4089 0.0390625 29.8794 0.0390625H64.6783C66.0897 0.0390625 67.4433 0.599737 68.4413 1.59774C69.4393 2.59575 70 3.94933 70 5.36073V41.1259C70 42.5373 69.4393 43.8908 68.4413 44.8888C67.4433 45.8869 66.0897 46.4475 64.6783 46.4475Z" fill="white"></path><path d="M17.7631 70.0022H9.76998C9.29952 70.0022 8.84832 69.8153 8.51565 69.4827C8.18298 69.15 7.99609 68.6988 7.99609 68.2283V43.6411C7.99609 43.1706 8.18298 42.7194 8.51565 42.3867C8.84832 42.0541 9.29952 41.8672 9.76998 41.8672C10.2404 41.8672 10.6916 42.0541 11.0243 42.3867C11.357 42.7194 11.5439 43.1706 11.5439 43.6411V66.4545H17.7631C18.2336 66.4545 18.6848 66.6414 19.0175 66.974C19.3501 67.3067 19.537 67.7579 19.537 68.2283C19.537 68.6988 19.3501 69.15 19.0175 69.4827C18.6848 69.8153 18.2336 70.0022 17.7631 70.0022V70.0022Z" fill="white"></path><path d="M25.7557 70H17.7614C17.2909 70 16.8397 69.8131 16.507 69.4804C16.1744 69.1478 15.9875 68.6966 15.9875 68.2261V44.6736C15.9875 44.2031 16.1744 43.7519 16.507 43.4193C16.8397 43.0866 17.2909 42.8997 17.7614 42.8997C18.2318 42.8997 18.683 43.0866 19.0157 43.4193C19.3483 43.7519 19.5352 44.2031 19.5352 44.6736V66.4522H23.9818V32.9139C23.9817 32.1777 24.1999 31.458 24.6089 30.8458C25.0179 30.2336 25.5993 29.7566 26.2795 29.4749C26.9597 29.1932 27.7082 29.1196 28.4302 29.2634C29.1523 29.4072 29.8154 29.7619 30.3359 30.2826L33.1161 33.0593C33.3221 33.2663 33.567 33.4303 33.8368 33.542C34.1066 33.6536 34.3958 33.7107 34.6878 33.7098H42.9435C43.2394 33.7098 43.5323 33.6508 43.8051 33.5362C44.0779 33.4216 44.325 33.2537 44.5321 33.0424C44.7392 32.831 44.902 32.5804 45.0109 32.3054C45.1199 32.0303 45.1729 31.7362 45.1667 31.4404C45.1419 30.24 44.1095 29.2644 42.8654 29.2644H36.3387C35.8684 29.264 35.4175 29.0768 35.0851 28.7441L31.2666 24.9267C30.5738 24.2298 29.7496 23.6775 28.8418 23.3015C27.934 22.9255 26.9606 22.7335 25.978 22.7365H24.6015L21.9205 24.9657C20.7526 25.9364 19.2818 26.4678 17.7631 26.4678C16.2445 26.4678 14.7737 25.9364 13.6057 24.9657L10.9224 22.7365H9.76821C8.11903 22.7384 6.53792 23.3943 5.37177 24.5605C4.20562 25.7267 3.54965 27.3078 3.54778 28.9569C3.54778 29.4274 3.36088 29.8786 3.02822 30.2113C2.69555 30.5439 2.24435 30.7308 1.77389 30.7308C1.30342 30.7308 0.852228 30.5439 0.519559 30.2113C0.186891 29.8786 0 29.4274 0 28.9569C0.00281724 26.3671 1.03287 23.8842 2.86415 22.0529C4.69544 20.2216 7.17839 19.1915 9.76821 19.1887H11.5634C11.9777 19.1889 12.379 19.334 12.6975 19.5991L15.8716 22.2374C16.4028 22.6799 17.0723 22.9222 17.7637 22.9222C18.4551 22.9222 19.1246 22.6799 19.6559 22.2374L22.8276 19.5979C23.1461 19.3329 23.5473 19.1877 23.9617 19.1875H25.9804C27.429 19.1835 28.864 19.4669 30.2023 20.0213C31.5407 20.5757 32.7557 21.39 33.7772 22.4172L37.0766 25.7166H42.8713C46.0336 25.7166 48.6566 28.2521 48.7193 31.3694C48.7348 32.137 48.5971 32.8999 48.3141 33.6136C48.0312 34.3273 47.6086 34.9773 47.0713 35.5256C46.534 36.074 45.8927 36.5096 45.1849 36.807C44.4771 37.1044 43.7171 37.2576 42.9494 37.2576H34.6831C33.925 37.2597 33.1741 37.1114 32.4738 36.8214C31.7734 36.5313 31.1376 36.1051 30.6031 35.5676L27.8276 32.7885C27.8049 32.766 27.7765 32.7501 27.7455 32.7424C27.7145 32.7347 27.682 32.7355 27.6514 32.7448C27.6168 32.7565 27.5867 32.7787 27.5655 32.8085C27.5443 32.8382 27.5329 32.8738 27.5331 32.9103V68.2225C27.5336 68.4561 27.4879 68.6874 27.3988 68.9033C27.3096 69.1192 27.1787 69.3153 27.0136 69.4804C26.8484 69.6456 26.6523 69.7765 26.4364 69.8656C26.2206 69.9548 25.9892 70.0004 25.7557 70V70Z" fill="white"></path><path d="M5.77105 49.4077C4.24095 49.4061 2.77397 48.7976 1.69203 47.7157C0.610088 46.6337 0.00156532 45.1667 0 43.6366V28.9536C0 28.4831 0.186891 28.0319 0.519559 27.6992C0.852228 27.3666 1.30342 27.1797 1.77389 27.1797C2.24435 27.1797 2.69555 27.3666 3.02822 27.6992C3.36088 28.0319 3.54778 28.4831 3.54778 28.9536V43.6366C3.54778 44.2263 3.78201 44.7918 4.19896 45.2087C4.6159 45.6257 5.1814 45.8599 5.77105 45.8599C6.3607 45.8599 6.9262 45.6257 7.34314 45.2087C7.76009 44.7918 7.99432 44.2263 7.99432 43.6366C7.99432 43.1662 8.18121 42.715 8.51388 42.3823C8.84655 42.0496 9.29775 41.8628 9.76821 41.8628C10.2387 41.8628 10.6899 42.0496 11.0225 42.3823C11.3552 42.715 11.5421 43.1662 11.5421 43.6366C11.5405 45.1667 10.932 46.6337 9.85007 47.7157C8.76813 48.7976 7.30115 49.4061 5.77105 49.4077Z" fill="white"></path><path d="M55.8223 70.0009H1.77779C1.30733 70.0009 0.856134 69.814 0.523466 69.4813C0.190797 69.1487 0.00390625 68.6975 0.00390625 68.227C0.00390625 67.7565 0.190797 67.3054 0.523466 66.9727C0.856134 66.64 1.30733 66.4531 1.77779 66.4531H55.8223C56.2927 66.4531 56.7439 66.64 57.0766 66.9727C57.4093 67.3054 57.5962 67.7565 57.5962 68.227C57.5962 68.6975 57.4093 69.1487 57.0766 69.4813C56.7439 69.814 56.2927 70.0009 55.8223 70.0009Z" fill="white"></path><path d="M46.1701 19.6259H36.9731C36.5026 19.6259 36.0514 19.439 35.7188 19.1063C35.3861 18.7737 35.1992 18.3225 35.1992 17.852C35.1992 17.3815 35.3861 16.9304 35.7188 16.5977C36.0514 16.265 36.5026 16.0781 36.9731 16.0781H46.1701C46.6406 16.0781 47.0918 16.265 47.4245 16.5977C47.7571 16.9304 47.944 17.3815 47.944 17.852C47.944 18.3225 47.7571 18.7737 47.4245 19.1063C47.0918 19.439 46.6406 19.6259 46.1701 19.6259V19.6259Z" fill="white"></path><path d="M55.3671 11.6025H36.9731C36.5026 11.6025 36.0514 11.4156 35.7188 11.0829C35.3861 10.7502 35.1992 10.299 35.1992 9.82857C35.1992 9.35811 35.3861 8.90692 35.7188 8.57425C36.0514 8.24158 36.5026 8.05469 36.9731 8.05469H55.3671C55.8376 8.05469 56.2888 8.24158 56.6215 8.57425C56.9541 8.90692 57.141 9.35811 57.141 9.82857C57.141 10.299 56.9541 10.7502 56.6215 11.0829C56.2888 11.4156 55.8376 11.6025 55.3671 11.6025Z" fill="white"></path></g><defs><clipPath id="clip0_489_1120"><rect width="70" height="70" fill="white"></rect></clipPath></defs></svg>